<svg xmlns="http://www.w3.org/2000/svg" viewBox="0 5 32 22"><defs><linearGradient id="e"><stop offset="0" style="stop-color:#0c1521"/><stop offset="1" style="stop-color:#353c58"/></linearGradient><linearGradient id="f"><stop offset="0" style="stop-color:#fff;stop-opacity:.7"/><stop offset="1" style="stop-color:#fff;stop-opacity:0"/></linearGradient><linearGradient id="d"><stop offset="0" style="stop-color:#0eff0e"/><stop offset="1" style="stop-color:#82ff82"/></linearGradient><linearGradient id="c"><stop offset="0" style="stop-color:#ffcb00"/><stop offset="1" style="stop-color:#ffe575"/></linearGradient><linearGradient id="b"><stop offset="0" style="stop-color:#ff2626"/><stop offset="1" style="stop-color:#ff5c5c"/></linearGradient><linearGradient id="a"><stop offset="0" style="stop-color:#526acc"/><stop offset="1" style="stop-color:#edf0fa"/></linearGradient><linearGradient id="g" x1="16.5" x2="20.5" y1="27" y2="3" gradientUnits="userSpaceOnUse" href="#a"/><linearGradient id="n" x1="7" x2="8.5" y1="24" y2="18" gradientUnits="userSpaceOnUse" href="#b"/><linearGradient id="o" x1="17" x2="18.5" y1="24" y2="18" gradientUnits="userSpaceOnUse" href="#c"/><linearGradient id="p" x1="25" x2="26.5" y1="24" y2="18" gradientUnits="userSpaceOnUse" href="#d"/><linearGradient id="h" x1="24.5" x2="12.5" y1="25" y2="7" gradientUnits="userSpaceOnUse" href="#e"/><linearGradient id="l" x1="24.5" x2="12.5" y1="25" y2="7" gradientUnits="userSpaceOnUse" href="#e"/><linearGradient id="k" x1="24.5" x2="12.5" y1="25" y2="7" gradientUnits="userSpaceOnUse" href="#e"/><linearGradient id="j" x1="24.5" x2="12.5" y1="25" y2="7" gradientUnits="userSpaceOnUse" href="#e"/><radialGradient id="i" cx="8.791" cy="6.048" r="13.674" fx="8.791" fy="6.048" gradientTransform="translate(-1.786 1.924)scale(1.17008)" gradientUnits="userSpaceOnUse" href="#f"/></defs><path d="m3 24 3.5-14L25 6c5-1.081 6 2 5 6l-3 12h-4l2-8c1-4-3-4-4 0l-2 8h-4l2-8c1-4-3-4-4 0l-2 8z" style="fill:url(#g);stroke:url(#h);stroke-width:2;paint-order:stroke fill markers" transform="translate(-.5 1)"/><path d="m3 24 3.5-14L25 6c5-1.081 6 2 5 6l-3 12h-4l2-8c1-4-3-4-4 0l-2 8h-4l2-8c1-4-3-4-4 0l-2 8z" style="fill:url(#i)" transform="translate(-.5 1)"/><path d="m4 18 .5-1h9l-.5 1Z" style="fill:url(#j)" transform="translate(-.5 1)"/><path d="m16 18 .5-1h5l-.5 1Z" style="fill:url(#k)" transform="translate(-.5 1)"/><path d="m24 18 .5-1h5l-.5 1Z" style="fill:url(#l)" transform="translate(-.5 1)"/><path d="m3 24 1.5-6h8L11 24Z" style="fill:url(#n)" transform="translate(-.5 1)"/><path d="M15 24h4l1.5-6h-4z" style="fill:url(#o)" transform="translate(-.5 1)"/><path d="M24.5 18h4L27 24h-4z" style="fill:url(#p)" transform="translate(-.5 1)"/></svg>